#!OML:ASF H:\Terrain\Patient Classification 1\Animal1\Tuesday\Animal1.ASF
:FULLY-SPECIFIED
:DEGREES
867
root 10.1865 15.977 -3.4271 9.82966 -9.38817 -365.057
lowerback 15.0014 -0.241094 -0.85034
upperback -0.559126 -0.319989 1.69495
thorax -9.03238 -0.070008 2.37913
lowerneck -9.90221 0.530529 -4.79577
upperneck -3.80515 1.2307 16.7354
head 0.437489 0.862288 5.92373
rclavicle 2.50469e-014 3.97569e-015
rhumerus -63.4156 -15.9416 -58.6001
rradius 11.9967
rwrist -9.97655
rhand 2.99805 18.8576
rfingers 7.12502
rthumb 28.4587 -8.99796
lclavicle 2.50469e-014 3.97569e-015
lhumerus -77.8067 21.2287 39.003
lradius 19.9432
lwrist -29.8431
lhand 21.0913 47.8173
lfingers 7.12502
lthumb -134.45 251.097
rfemur -46.1728 -5.26657 12.6798
rtibia 74.6937
rfoot -8.13537 -17.3255
rtoes 25.042
lfemur -34.7553 5.19023 -21.8894
ltibia 47.7454
lfoot -22.4726 19.6194
ltoes 18.2427
868
root 10.2296 15.9685 -3.41457 9.8626 -10.2698 -365.004
lowerback 15.0236 -0.25922 -1.01394
upperback -0.709772 -0.367902 1.74018
thorax -9.20653 -0.0806868 2.53472
lowerneck -9.89907 0.280059 -5.044
upperneck -2.88712 0.790579 17.1406
head 0.755367 0.688639 6.08326
rclavicle -2.88238e-015 9.93923e-015
rhumerus -64.2354 -15.894 -60.5481
rradius 12.0747
rwrist -11.0191
rhand 4.64351 17.6189
rfingers 7.12502
rthumb 30.0299 -9.96295
lclavicle -2.88238e-015 9.93923e-015
lhumerus -79.588 22.7563 38.9479
lradius 19.4523
lwrist -28.8126
lhand 22.5849 48.8435
lfingers 7.12502
lthumb -133.065 251.538
rfemur -47.1441 -5.30669 12.6211
rtibia 76.0709
rfoot -10.0691 -16.1851
rtoes 32.8016
lfemur -34.8706 5.73936 -22.2476
ltibia 48.0655
lfoot -22.9961 19.5699
ltoes 21.8638
869
root 10.2716 15.937 -3.40651 9.99238 -11.2328 -365.375
lowerback 15.0641 -0.255022 -0.753194
upperback -0.854213 -0.2994 1.8989
thorax -9.39216 -0.0528848 2.54575
lowerneck -9.96809 -0.0178267 -5.28472
upperneck -1.94211 0.277408 17.4739
head 1.10335 0.483067 6.21665
rclavicle -9.54166e-015 -2.78299e-014
rhumerus -65.0325 -16.0129 -61.5646
rradius 11.9084
rwrist -11.1171
rhand 6.88494 17.0379
rfingers 7.12502
rthumb 32.1662 -10.1345
lclavicle -9.54166e-015 -2.78299e-014
lhumerus -81.1713 24.2185 38.4363
lradius 18.6761
lwrist -28.4707
lhand 24.0805 49.8074
lfingers 7.12502
lthumb -131.684 251.872
rfemur -48.0368 -5.36162 13.2066
rtibia 77.348
rfoot -10.4964 -16.1962
rtoes 34.2646
lfemur -35.1707 6.49885 -22.1754
ltibia 48.4647
lfoot -23.2226 19.7879
ltoes 23.374
870
root 10.3205 15.9031 -3.38601 9.67379 -12.1605 -365.018
lowerback 15.2226 -0.28361 -1.01145
upperback -0.880943 -0.391219 1.82391
thorax -9.50657 -0.084382 2.6359
lowerneck -9.83886 -0.339894 -5.61159
upperneck -1.21907 -0.236719 17.8696
head 1.35794 0.260406 6.38126
rclavicle -1.35174e-014 3.97569e-016
rhumerus -65.7839 -15.9461 -62.2685
rradius 11.8798
rwrist -11.1222
rhand 8.55445 15.7171
rfingers 7.12502
rthumb 33.754 -11.121
lclavicle -1.35174e-014 3.97569e-016
lhumerus -82.6685 25.3876 37.5729
lradius 17.6841
lwrist -28.79
lhand 25.7212 50.0894
lfingers 7.12502
lthumb -130.178 251.405
rfemur -48.4414 -6.00924 13.0993
rtibia 78.587
rfoot -8.98993 -17.2681
rtoes 27.6413
lfemur -34.9608 7.1554 -22.8762
ltibia 48.8637
lfoot -23.8444 19.9511
ltoes 24.3451
871
root 10.3685 15.88 -3.3667 9.41176 -12.9404 -364.967
lowerback 15.404 -0.357263 -0.960652
upperback -0.919551 -0.476596 1.85834
thorax -9.6485 -0.124637 2.66839
lowerneck -9.62077 -0.683022 -5.83716
upperneck -0.557617 -0.781692 18.0325
head 1.58279 0.0111309 6.45071
rclavicle -6.95746e-016 -2.06736e-014
rhumerus -66.3635 -15.3424 -63.1654
rradius 12.0326
rwrist -11.9953
rhand 10.2907 13.9133
rfingers 7.12502
rthumb 35.402 -12.5479
lclavicle -6.95746e-016 -2.06736e-014
lhumerus -83.8241 25.9685 37.2489
lradius 16.6777
lwrist -29.4347
lhand 27.9758 49.6734
lfingers 7.12502
lthumb -128.122 249.851
rfemur -48.6877 -6.62518 13.2617
rtibia 79.7255
rfoot -7.71675 -17.8528
rtoes 21.1936
lfemur -34.7283 7.74683 -23.1764
ltibia 49.2678
lfoot -24.7635 19.6504
ltoes 26.5173
872
root 10.4139 15.8691 -3.34048 9.40071 -13.6243 -365.393
lowerback 15.3014 -0.458504 -0.413529
upperback -0.971093 -0.494303 2.02601
thorax -9.64867 -0.15624 2.54204
lowerneck -9.33257 -1.00723 -5.97275
upperneck 0.0119717 -1.29514 18.0277
head 1.76351 -0.233338 6.45041
rclavicle 5.75482e-014 -2.32578e-014
rhumerus -66.9759 -15.1933 -62.5722
rradius 11.7071
rwrist -11.2782
rhand 12.7048 12.9555
rfingers 7.12502
rthumb 37.687 -12.9282
lclavicle 5.75482e-014 -2.32578e-014
lhumerus -84.8198 26.252 36.6961
lradius 15.7077
lwrist -31.195
lhand 31.2631 49.2181
lfingers 7.12502
lthumb -125.161 247.473
rfemur -48.9651 -6.99465 13.8546
rtibia 80.7572
rfoot -7.7994 -17.7237
rtoes 20.1874
lfemur -34.6051 8.2528 -22.9307
ltibia 49.5783
lfoot -25.4205 19.4777
ltoes 27.5617
873
root 10.4549 15.8534 -3.3126 9.18891 -14.4069 -365.082
lowerback 15.0461 -0.502798 -0.525089
upperback -0.906322 -0.588081 1.89992
thorax -9.4267 -0.202316 2.48364
lowerneck -9.21155 -1.28534 -6.08877
upperneck 0.507517 -1.7451 18.2379
head 1.94784 -0.437198 6.51869
rclavicle 1.57537e-014 -1.55052e-014
rhumerus -67.8403 -16.1277 -59.7978
rradius 11.0794
rwrist -7.99796
rhand 14.9253 12.9761
rfingers 7.12502
rthumb 39.7813 -12.3155
lclavicle 1.57537e-014 -1.55052e-014
lhumerus -85.7623 26.4847 35.1159
lradius 14.89
lwrist -34.0115
lhand 35.4403 48.8425
lfingers 7.12502
lthumb -121.48 244.088
rfemur -49.3756 -7.44299 13.5639
rtibia 81.8827
rfoot -8.37295 -17.4429
rtoes 20.3678
lfemur -34.3521 8.66636 -23.481
ltibia 49.7398
lfoot -25.7638 19.6974
ltoes 27.339
874
root 10.4939 15.8297 -3.29457 8.8315 -15.3078 -364.683
lowerback 14.9803 -0.519159 -0.763951
upperback -0.750429 -0.672456 1.71207
thorax -9.21348 -0.240047 2.43087
lowerneck -9.21789 -1.50383 -6.12662
upperneck 0.898687 -2.11174 18.512
head 2.11498 -0.596363 6.59736
rclavicle -7.95139e-015 2.74323e-014
rhumerus -68.7582 -17.3429 -55.8832
rradius 10.4678
rwrist -3.81654
rhand 15.8194 12.7039
rfingers 7.12502
rthumb 40.6224 -12.3314
lclavicle -7.95139e-015 2.74323e-014
lhumerus -86.7322 26.5875 32.9434
lradius 14.4622
lwrist -37.0613
lhand 40.5177 48.2661
lfingers 7.12502
lthumb -117.177 238.696
rfemur -49.7641 -7.80966 13.2036
rtibia 82.9819
rfoot -8.27373 -17.5136
rtoes 18.3383
lfemur -33.9961 9.19806 -24.1206
ltibia 49.8281
lfoot -26.0126 19.84
ltoes 27.965
875
root 10.5358 15.8186 -3.26447 8.45221 -16.1283 -364.601
lowerback 15.053 -0.608976 -0.683669
upperback -0.596131 -0.783417 1.66835
thorax -9.08239 -0.301281 2.36157
lowerneck -9.01153 -1.72529 -6.2694
upperneck 1.06104 -2.43892 18.7005
head 2.175 -0.758717 6.66669
rclavicle 3.45388e-014 -2.5842e-014
rhumerus -68.7432 -17.2576 -54.1009
rradius 9.87652
rwrist -2.25272
rhand 15.5243 11.8706
rfingers 7.12502
rthumb 40.3449 -13.2505
lclavicle 3.45388e-014 -2.5842e-014
lhumerus -87.9056 26.5279 30.4155
lradius 14.4735
lwrist -39.9243
lhand 45.2651 48.4917
lfingers 7.12502
lthumb -113.412 232.78
rfemur -49.7986 -8.15516 13.1438
rtibia 83.9198
rfoot -8.42008 -17.4408
rtoes 17.1621
lfemur -33.4295 9.77977 -24.411
ltibia 49.8123
lfoot -26.029 20.2732
ltoes 27.4799
876
root 10.5759 15.8121 -3.23161 8.18285 -16.941 -364.458
lowerback 15.066 -0.72439 -0.67559
upperback -0.501281 -0.940773 1.62248
thorax -8.97983 -0.380552 2.34118
lowerneck -8.76033 -1.95587 -6.54918
upperneck 1.10772 -2.75521 19.0067
head 2.19827 -0.921288 6.79843
rclavicle -5.92875e-014 2.04748e-014
rhumerus -68.6442 -16.7881 -52.2303
rradius 9.57029
rwrist -0.900177
rhand 15.954 11.2181
rfingers 7.12502
rthumb 40.7489 -13.7776
lclavicle -5.92875e-014 2.04748e-014
lhumerus -88.9183 26.3452 27.8143
lradius 14.6072
lwrist -42.0789
lhand 48.0041 49.5878
lfingers 7.12502
lthumb -111.406 229.346
rfemur -50.0222 -8.52622 12.9811
rtibia 84.8887
rfoot -9.30656 -17.1978
rtoes 18.1421
lfemur -32.9785 10.4216 -24.7849
ltibia 49.7808
lfoot -26.2377 20.5761
ltoes 26.6558
877
root 10.613 15.8034 -3.20802 7.96414 -17.8741 -364.354
lowerback 15.0859 -0.791114 -0.590575
upperback -0.365116 -1.02674 1.50157
thorax -8.84226 -0.431617 2.17945
lowerneck -8.76006 -2.2315 -6.95241
upperneck 1.16323 -3.13397 19.6017
head 2.28734 -1.09628 7.04307
rclavicle 5.4467e-014 -1.55052e-014
rhumerus -68.416 -16.3275 -50.3917
rradius 9.47332
rwrist 0.500847
rhand 16.2518 10.7605
rfingers 7.12502
rthumb 41.0286 -14.1468
lclavicle 5.4467e-014 -1.55052e-014
lhumerus -89.2109 25.9637 25.9517
lradius 14.834
lwrist -42.942
lhand 48.9931 50.2654
lfingers 7.12502
lthumb -110.721 228.171
rfemur -50.3983 -8.78107 12.8889
rtibia 85.8377
rfoot -10.1349 -17.1019
rtoes 19.323
lfemur -32.6274 11.142 -25.1083
ltibia 49.7765
lfoot -26.7031 20.5498
ltoes 27.2043
878
root 10.6504 15.7943 -3.18976 7.73491 -18.908 -364.23
lowerback 15.0725 -0.761921 -0.433823
upperback -0.164938 -0.978095 1.3259
thorax -8.62414 -0.423283 1.88645
lowerneck -8.57461 -2.58741 -7.42884
upperneck 0.868552 -3.57192 20.2692
head 2.26037 -1.32522 7.32093
rclavicle -1.93815e-014 -2.78299e-015
rhumerus -68.121 -16.0042 -48.4047
rradius 9.6002
rwrist 2.09801
rhand 15.7213 10.3017
rfingers 7.12502
rthumb 40.5302 -14.7622
lclavicle -1.93815e-014 -2.78299e-015
lhumerus -88.9635 25.448 24.5209
lradius 15.1798
lwrist -43.0595
lhand 48.8426 50.2659
lfingers 7.12502
lthumb -110.824 228.462
rfemur -50.8331 -8.85375 12.7494
rtibia 86.7363
rfoot -10.72 -16.7052
rtoes 21.6573
lfemur -32.3159 11.8338 -25.4397
ltibia 49.8234
lfoot -27.001 20.7302
ltoes 27.4408
879
root 10.6843 15.7829 -3.17633 7.5864 -19.956 -364.014
lowerback 14.8809 -0.691443 -0.54123
upperback 0.0309586 -0.912617 1.24886
thorax -8.30489 -0.39362 1.84265
lowerneck -8.08052 -2.85419 -7.78501
upperneck 0.23911 -3.84322 20.6781
head 2.05442 -1.50982 7.50395
rclavicle -1.73937e-014 8.74653e-015
rhumerus -67.7493 -15.4032 -46.1834
rradius 10.1254
rwrist 3.67778
rhand 14.1217 9.17967
rfingers 7.12502
rthumb 39.0242 -16.3334
lclavicle -1.73937e-014 8.74653e-015
lhumerus -88.8357 25.1056 22.4878
lradius 15.3511
lwrist -43.5074
lhand 47.6458 50.2496
lfingers 7.12502
lthumb -111.66 230.649
rfemur -51.5317 -8.90434 12.6285
rtibia 87.6079
rfoot -10.0931 -16.7853
rtoes 22.4749
lfemur -32.1883 12.4967 -25.8645
ltibia 49.9488
lfoot -27.3684 20.8745
ltoes 27.7079
880
root 10.709 15.782 -3.16009 7.63406 -20.9522 -364.592
lowerback 14.748 -0.673785 -0.247406
upperback 0.217198 -0.81886 1.53429
thorax -8.03183 -0.358316 1.95557
lowerneck -7.68267 -3.01481 -8.1522
upperneck -0.183526 -3.9875 20.8643
head 1.90029 -1.62118 7.62491
rclavicle -7.30037e-014 1.25234e-014
rhumerus -66.4368 -13.6368 -46.1135
rradius 10.519
rwrist 2.92164
rhand 11.8765 7.91653
rfingers 7.12502
rthumb 36.9039 -18.1727
lclavicle -7.30037e-014 1.25234e-014
lhumerus -88.913 24.7771 20.3001
lradius 15.6939
lwrist -43.9128
lhand 45.9656 50.822
lfingers 7.12502
lthumb -112.885 234.03
rfemur -51.8846 -8.709 13.4224
rtibia 88.2044
rfoot -9.24474 -17.4106
rtoes 21.2321
lfemur -32.0049 13.3022 -25.4
ltibia 50.0474
lfoot -27.7043 20.9358
ltoes 28.3641
